<?xml version="1.0" encoding="UTF-8" standalone="no"?>
<!DOCTYPE svg PUBLIC "-//W3C//DTD SVG 1.1//EN" "http://www.w3.org/Graphics/SVG/1.1/DTD/svg11.dtd">
<!-- Создано Microsoft Visio, экспорт SVG scheme.svg Page-1 -->
<svg xmlns="http://www.w3.org/2000/svg" xmlns:xlink="http://www.w3.org/1999/xlink" xmlns:ev="http://www.w3.org/2001/xml-events"
		width="8.26772in" height="11.6929in" viewBox="0 0 595.276 841.89" xml:space="preserve" color-interpolation-filters="sRGB"
		class="st6">
	<style type="text/css">
	<![CDATA[
		.st1 {fill:#ffffff;stroke:#000000;stroke-linecap:round;stroke-linejoin:round;stroke-width:0.75}
		.st2 {fill:#000000}
		.st3 {fill:#4d1e1a;font-family:Calibri;font-size:0.833336em}
		.st4 {font-size:1em}
		.st5 {stroke:#000000;stroke-linecap:round;stroke-linejoin:round;stroke-width:0.75}
		.st6 {fill:none;fill-rule:evenodd;font-size:12px;overflow:visible;stroke-linecap:square;stroke-miterlimit:3}
	]]>
	</style>

	<g>
		<title>Страница-1</title>
		<g id="group1-1" transform="translate(262.205,-708.661)">
			<title>ПК</title>
			<desc>Hostname: Master IP: 192.168.11.100 Роли: ansible</desc>
			<g id="shape2-2" transform="translate(0,-4.72617)">
				<title>Лист.2</title>
				<path d="M48.01 824.49 L48.01 830.47 L51.62 830.47 L55.04 834.75 L70.87 834.75 L70.87 780.48 L48.01 780.48 L48.01
							 788.26 L57.81 788.26 L57.81 824.49 L48.01 824.49 ZM57.81 788.26 L3.53 788.26 L3.53 824.49 L57.81 824.49
							 L57.81 788.26 ZM60.73 841.89 L51.62 830.47 L9.11 830.47 L0 841.89 L60.73 841.89 ZM35.14 824.49 L25.59
							 824.49 L25.59 830.47 L35.14 830.47 L35.14 824.49 Z" class="st1"/>
			</g>
			<g id="shape3-4" transform="translate(7.05282,-25.393)">
				<title>Лист.3</title>
				<path d="M47.32 812.52 L0 812.52 L0 841.89 L47.32 841.89 L47.32 812.52 Z" class="st1"/>
			</g>
			<g id="shape4-6" transform="translate(8.26528,-7.08364)">
				<title>Лист.4</title>
				<path d="M53.45 788.91 L58.34 788.91 L58.34 787.01 L53.45 787.01 L53.45 788.91 ZM53.45 792.31 L58.34 792.31 L58.34
							 790.4 L53.45 790.4 L53.45 792.31 ZM41.47 837.46 L38.77 837.46 L40.28 839.14 L43.19 839.14 L41.47 837.46
							 ZM38.42 834.48 L36.1 834.48 L37.72 836.29 L40.27 836.29 L38.42 834.48 ZM37.32 837.46 L34.62 837.46 L35.81
							 839.14 L38.72 839.14 L37.32 837.46 ZM34.84 834.48 L32.52 834.48 L33.79 836.29 L36.35 836.29 L34.84 834.48
							 ZM33.17 837.46 L30.47 837.46 L31.33 839.14 L34.24 839.14 L33.17 837.46 ZM31.27 834.48 L28.95 834.48
							 L29.88 836.32 L32.44 836.32 L31.27 834.48 ZM29.02 837.46 L26.32 837.46 L26.86 839.14 L29.77 839.14 L29.02
							 837.46 ZM27.75 834.61 L25.4 834.61 L25.95 836.32 L28.51 836.32 L27.75 834.61 ZM24.87 837.46 L22.17 837.46
							 L22.38 839.14 L25.29 839.14 L24.87 837.46 ZM24.18 834.75 L21.82 834.75 L22.04 836.43 L24.61 836.43 L24.18
							 834.75 ZM20.55 834.75 L18.19 834.75 L18.08 836.43 L20.65 836.43 L20.55 834.75 ZM20.71 837.46 L18.01
							 837.46 L17.9 839.14 L20.81 839.14 L20.71 837.46 ZM16.93 834.75 L14.57 834.75 L14.13 836.43 L16.7 836.43
							 L16.93 834.75 ZM16.56 837.46 L13.86 837.46 L13.43 839.14 L16.34 839.14 L16.56 837.46 ZM31.37 840.21
							 L12.32 840.21 L11.83 841.89 L32.19 841.89 L31.37 840.21 ZM13.3 834.75 L10.94 834.75 L10.18 836.43 L12.75
							 836.43 L13.3 834.75 ZM12.41 837.46 L9.71 837.46 L8.95 839.14 L11.86 839.14 L12.41 837.46 ZM9.67 834.75
							 L7.31 834.75 L6.22 836.43 L8.79 836.43 L9.67 834.75 ZM8.26 837.46 L5.56 837.46 L4.48 839.14 L7.39 839.14
							 L8.26 837.46 ZM6.04 834.75 L3.68 834.75 L2.27 836.43 L4.84 836.43 L6.04 834.75 ZM4.11 837.46 L1.41 837.46
							 L0 839.14 L2.91 839.14 L4.11 837.46 Z" class="st2"/>
			</g>
			<g id="shape1-9">
				<text x="-2.45" y="854.89" class="st3">Hostname: Master <tspan x="-2.54" dy="1.2em" class="st4">IP</tspan>: 192.168.11.100 <tspan
							x="8.1" dy="1.2em" class="st4">Роли</tspan>: ansible</text>			</g>
		</g>
		<g id="group5-13" transform="translate(65.1969,-469.134)">
			<title>ПК.5</title>
			<desc>Hostname: host1 IP: 192.168.11.101 Роли: Web-server</desc>
			<g id="shape6-14" transform="translate(0,-4.72617)">
				<title>Лист.6</title>
				<path d="M48.01 824.49 L48.01 830.47 L51.62 830.47 L55.04 834.75 L70.87 834.75 L70.87 780.48 L48.01 780.48 L48.01
							 788.26 L57.81 788.26 L57.81 824.49 L48.01 824.49 ZM57.81 788.26 L3.53 788.26 L3.53 824.49 L57.81 824.49
							 L57.81 788.26 ZM60.73 841.89 L51.62 830.47 L9.11 830.47 L0 841.89 L60.73 841.89 ZM35.14 824.49 L25.59
							 824.49 L25.59 830.47 L35.14 830.47 L35.14 824.49 Z" class="st1"/>
			</g>
			<g id="shape7-16" transform="translate(7.05282,-25.393)">
				<title>Лист.7</title>
				<path d="M47.32 812.52 L0 812.52 L0 841.89 L47.32 841.89 L47.32 812.52 Z" class="st1"/>
			</g>
			<g id="shape8-18" transform="translate(8.26528,-7.08364)">
				<title>Лист.8</title>
				<path d="M53.45 788.91 L58.34 788.91 L58.34 787.01 L53.45 787.01 L53.45 788.91 ZM53.45 792.31 L58.34 792.31 L58.34
							 790.4 L53.45 790.4 L53.45 792.31 ZM41.47 837.46 L38.77 837.46 L40.28 839.14 L43.19 839.14 L41.47 837.46
							 ZM38.42 834.48 L36.1 834.48 L37.72 836.29 L40.27 836.29 L38.42 834.48 ZM37.32 837.46 L34.62 837.46 L35.81
							 839.14 L38.72 839.14 L37.32 837.46 ZM34.84 834.48 L32.52 834.48 L33.79 836.29 L36.35 836.29 L34.84 834.48
							 ZM33.17 837.46 L30.47 837.46 L31.33 839.14 L34.24 839.14 L33.17 837.46 ZM31.27 834.48 L28.95 834.48
							 L29.88 836.32 L32.44 836.32 L31.27 834.48 ZM29.02 837.46 L26.32 837.46 L26.86 839.14 L29.77 839.14 L29.02
							 837.46 ZM27.75 834.61 L25.4 834.61 L25.95 836.32 L28.51 836.32 L27.75 834.61 ZM24.87 837.46 L22.17 837.46
							 L22.38 839.14 L25.29 839.14 L24.87 837.46 ZM24.18 834.75 L21.82 834.75 L22.04 836.43 L24.61 836.43 L24.18
							 834.75 ZM20.55 834.75 L18.19 834.75 L18.08 836.43 L20.65 836.43 L20.55 834.75 ZM20.71 837.46 L18.01
							 837.46 L17.9 839.14 L20.81 839.14 L20.71 837.46 ZM16.93 834.75 L14.57 834.75 L14.13 836.43 L16.7 836.43
							 L16.93 834.75 ZM16.56 837.46 L13.86 837.46 L13.43 839.14 L16.34 839.14 L16.56 837.46 ZM31.37 840.21
							 L12.32 840.21 L11.83 841.89 L32.19 841.89 L31.37 840.21 ZM13.3 834.75 L10.94 834.75 L10.18 836.43 L12.75
							 836.43 L13.3 834.75 ZM12.41 837.46 L9.71 837.46 L8.95 839.14 L11.86 839.14 L12.41 837.46 ZM9.67 834.75
							 L7.31 834.75 L6.22 836.43 L8.79 836.43 L9.67 834.75 ZM8.26 837.46 L5.56 837.46 L4.48 839.14 L7.39 839.14
							 L8.26 837.46 ZM6.04 834.75 L3.68 834.75 L2.27 836.43 L4.84 836.43 L6.04 834.75 ZM4.11 837.46 L1.41 837.46
							 L0 839.14 L2.91 839.14 L4.11 837.46 Z" class="st2"/>
			</g>
			<g id="shape5-21">
				<text x="0.65" y="854.89" class="st3">Hostname: host1 <tspan x="-2.54" dy="1.2em" class="st4">IP</tspan>: 192.168.11.101 <tspan
							x="-1.28" dy="1.2em" class="st4">Роли</tspan>: Web-server</text>			</g>
		</g>
		<g id="group9-25" transform="translate(459.213,-469.134)">
			<title>ПК.9</title>
			<desc>Hostname: host2 IP: 192.168.11.102 Роли: Web-server</desc>
			<g id="shape10-26" transform="translate(0,-4.72617)">
				<title>Лист.10</title>
				<path d="M48.01 824.49 L48.01 830.47 L51.62 830.47 L55.04 834.75 L70.87 834.75 L70.87 780.48 L48.01 780.48 L48.01
							 788.26 L57.81 788.26 L57.81 824.49 L48.01 824.49 ZM57.81 788.26 L3.53 788.26 L3.53 824.49 L57.81 824.49
							 L57.81 788.26 ZM60.73 841.89 L51.62 830.47 L9.11 830.47 L0 841.89 L60.73 841.89 ZM35.14 824.49 L25.59
							 824.49 L25.59 830.47 L35.14 830.47 L35.14 824.49 Z" class="st1"/>
			</g>
			<g id="shape11-28" transform="translate(7.05282,-25.393)">
				<title>Лист.11</title>
				<path d="M47.32 812.52 L0 812.52 L0 841.89 L47.32 841.89 L47.32 812.52 Z" class="st1"/>
			</g>
			<g id="shape12-30" transform="translate(8.26528,-7.08364)">
				<title>Лист.12</title>
				<path d="M53.45 788.91 L58.34 788.91 L58.34 787.01 L53.45 787.01 L53.45 788.91 ZM53.45 792.31 L58.34 792.31 L58.34
							 790.4 L53.45 790.4 L53.45 792.31 ZM41.47 837.46 L38.77 837.46 L40.28 839.14 L43.19 839.14 L41.47 837.46
							 ZM38.42 834.48 L36.1 834.48 L37.72 836.29 L40.27 836.29 L38.42 834.48 ZM37.32 837.46 L34.62 837.46 L35.81
							 839.14 L38.72 839.14 L37.32 837.46 ZM34.84 834.48 L32.52 834.48 L33.79 836.29 L36.35 836.29 L34.84 834.48
							 ZM33.17 837.46 L30.47 837.46 L31.33 839.14 L34.24 839.14 L33.17 837.46 ZM31.27 834.48 L28.95 834.48
							 L29.88 836.32 L32.44 836.32 L31.27 834.48 ZM29.02 837.46 L26.32 837.46 L26.86 839.14 L29.77 839.14 L29.02
							 837.46 ZM27.75 834.61 L25.4 834.61 L25.95 836.32 L28.51 836.32 L27.75 834.61 ZM24.87 837.46 L22.17 837.46
							 L22.38 839.14 L25.29 839.14 L24.87 837.46 ZM24.18 834.75 L21.82 834.75 L22.04 836.43 L24.61 836.43 L24.18
							 834.75 ZM20.55 834.75 L18.19 834.75 L18.08 836.43 L20.65 836.43 L20.55 834.75 ZM20.71 837.46 L18.01
							 837.46 L17.9 839.14 L20.81 839.14 L20.71 837.46 ZM16.93 834.75 L14.57 834.75 L14.13 836.43 L16.7 836.43
							 L16.93 834.75 ZM16.56 837.46 L13.86 837.46 L13.43 839.14 L16.34 839.14 L16.56 837.46 ZM31.37 840.21
							 L12.32 840.21 L11.83 841.89 L32.19 841.89 L31.37 840.21 ZM13.3 834.75 L10.94 834.75 L10.18 836.43 L12.75
							 836.43 L13.3 834.75 ZM12.41 837.46 L9.71 837.46 L8.95 839.14 L11.86 839.14 L12.41 837.46 ZM9.67 834.75
							 L7.31 834.75 L6.22 836.43 L8.79 836.43 L9.67 834.75 ZM8.26 837.46 L5.56 837.46 L4.48 839.14 L7.39 839.14
							 L8.26 837.46 ZM6.04 834.75 L3.68 834.75 L2.27 836.43 L4.84 836.43 L6.04 834.75 ZM4.11 837.46 L1.41 837.46
							 L0 839.14 L2.91 839.14 L4.11 837.46 Z" class="st2"/>
			</g>
			<g id="shape9-33">
				<text x="0.65" y="854.89" class="st3">Hostname: host2 <tspan x="-2.54" dy="1.2em" class="st4">IP</tspan>: 192.168.11.102 <tspan
							x="-1.28" dy="1.2em" class="st4">Роли</tspan>: Web-server</text>			</g>
		</g>
		<g id="shape13-37" transform="translate(215.433,-742.677)">
			<title>Динамическая соединительная линия</title>
			<path d="M0 841.89 L0 1080 L-79.37 1080" class="st5"/>
		</g>
		<g id="shape14-40" transform="translate(265.738,-735.591)">
			<title>Динамическая соединительная линия.14</title>
			<path d="M0 834.8 L-50.31 834.8" class="st5"/>
		</g>
		<g id="shape15-43" transform="translate(382.677,-744.094)">
			<title>Динамическая соединительная линия.15</title>
			<path d="M0 841.89 L0 1081.42 L80.07 1081.42" class="st5"/>
		</g>
		<g id="shape16-46" transform="translate(333.071,-737.008)">
			<title>Динамическая соединительная линия.16</title>
			<path d="M0 834.8 L49.61 834.8" class="st5"/>
		</g>
	</g>
</svg>
